{
  "asset": {
    "version": "2.0",
    "generator": "SPECTER Fir Sapling runtime LOD builder (lod0)",
    "copyright": "Poly Haven Fir Sapling by Rico Cilliers and Rob Tuytel — CC0 1.0"
  },
  "scene": 0,
  "scenes": [
    {
      "name": "SPECTER Fir Sapling",
      "nodes": [
        0
      ]
    }
  ],
  "nodes": [
    {
      "mesh": 0,
      "name": "specter-fir-sapling-lod0"
    }
  ],
  "meshes": [
    {
      "name": "specter_fir_sapling_lod0",
      "primitives": [
        {
          "attributes": {
            "POSITION": 0,
            "TEXCOORD_0": 1,
            "NORMAL": 2
          },
          "indices": 3,
          "material": 0
        },
        {
          "attributes": {
            "POSITION": 4,
            "TEXCOORD_0": 5,
            "NORMAL": 6
          },
          "indices": 7,
          "material": 1
        }
      ]
    }
  ],
  "accessors": [
    {
      "bufferView": 0,
      "componentType": 5126,
      "count": 388,
      "type": "VEC3",
      "min": [
        -0.2750617563724518,
        -0.007901787757873535,
        -0.2920974791049957
      ],
      "max": [
        0.2531963288784027,
        1.1080386638641357,
        0.26755601167678833
      ]
    },
    {
      "bufferView": 1,
      "componentType": 5126,
      "count": 388,
      "type": "VEC2"
    },
    {
      "bufferView": 2,
      "componentType": 5126,
      "count": 388,
      "type": "VEC3"
    },
    {
      "bufferView": 3,
      "componentType": 5123,
      "count": 1638,
      "type": "SCALAR",
      "min": [
        0
      ],
      "max": [
        387
      ]
    },
    {
      "bufferView": 4,
      "componentType": 5126,
      "count": 186918,
      "type": "VEC3",
      "min": [
        -0.43695688247680664,
        0.02356576919555664,
        -0.42620566487312317
      ],
      "max": [
        0.42418965697288513,
        1.2928361892700195,
        0.396030455827713
      ]
    },
    {
      "bufferView": 5,
      "componentType": 5126,
      "count": 186918,
      "type": "VEC2"
    },
    {
      "bufferView": 6,
      "componentType": 5126,
      "count": 186918,
      "type": "VEC3"
    },
    {
      "bufferView": 7,
      "componentType": 5125,
      "count": 470568,
      "type": "SCALAR",
      "min": [
        0
      ],
      "max": [
        186917
      ]
    }
  ],
  "bufferViews": [
    {
      "buffer": 0,
      "byteOffset": 0,
      "byteLength": 4656,
      "target": 34962
    },
    {
      "buffer": 0,
      "byteOffset": 4656,
      "byteLength": 3104,
      "target": 34962
    },
    {
      "buffer": 0,
      "byteOffset": 7760,
      "byteLength": 4656,
      "target": 34962
    },
    {
      "buffer": 0,
      "byteOffset": 12416,
      "byteLength": 3276,
      "target": 34963
    },
    {
      "buffer": 0,
      "byteOffset": 15692,
      "byteLength": 2243016,
      "target": 34962
    },
    {
      "buffer": 0,
      "byteOffset": 2258708,
      "byteLength": 1495344,
      "target": 34962
    },
    {
      "buffer": 0,
      "byteOffset": 3754052,
      "byteLength": 2243016,
      "target": 34962
    },
    {
      "buffer": 0,
      "byteOffset": 5997068,
      "byteLength": 1882272,
      "target": 34963
    }
  ],
  "buffers": [
    {
      "byteLength": 7879340,
      "uri": "fir_sapling_lod0.bin"
    }
  ],
  "materials": [
    {
      "doubleSided": true,
      "name": "fir_sapling_branches",
      "normalTexture": {
        "index": 0
      },
      "pbrMetallicRoughness": {
        "baseColorTexture": {
          "index": 1
        },
        "metallicFactor": 0,
        "metallicRoughnessTexture": {
          "index": 2
        }
      }
    },
    {
      "doubleSided": true,
      "extensions": {
        "KHR_materials_specular": {
          "specularColorFactor": [
            0.05309009571385226,
            0.05309009571385226,
            0.05309009571385226
          ]
        },
        "KHR_materials_ior": {
          "ior": 1.4500000476837158
        }
      },
      "name": "fir_sapling_twigs",
      "normalTexture": {
        "index": 3
      },
      "pbrMetallicRoughness": {
        "baseColorTexture": {
          "index": 4
        },
        "metallicFactor": 0,
        "metallicRoughnessTexture": {
          "index": 5
        }
      }
    }
  ],
  "textures": [
    {
      "sampler": 0,
      "source": 0
    },
    {
      "sampler": 0,
      "source": 1
    },
    {
      "sampler": 0,
      "source": 2
    },
    {
      "sampler": 0,
      "source": 3
    },
    {
      "sampler": 0,
      "source": 4
    },
    {
      "sampler": 0,
      "source": 5
    }
  ],
  "images": [
    {
      "mimeType": "image/jpeg",
      "name": "fir_sapling_branches_nor_gl",
      "uri": "textures/fir_sapling_branches_nor_gl_1k.jpg"
    },
    {
      "mimeType": "image/jpeg",
      "name": "fir_sapling_branches_diff",
      "uri": "textures/fir_sapling_branches_diff_1k.jpg"
    },
    {
      "mimeType": "image/jpeg",
      "name": "fir_sapling_branches_rough",
      "uri": "textures/fir_sapling_branches_arm_1k.jpg"
    },
    {
      "mimeType": "image/jpeg",
      "name": "fir_sapling_twigs_nor_gl",
      "uri": "textures/fir_sapling_twigs_nor_gl_1k.jpg"
    },
    {
      "mimeType": "image/jpeg",
      "name": "fir_sapling_twigs_diff",
      "uri": "textures/fir_sapling_twigs_diff_1k.jpg"
    },
    {
      "mimeType": "image/jpeg",
      "name": "fir_sapling_twigs_rough",
      "uri": "textures/fir_sapling_twigs_arm_1k.jpg"
    }
  ],
  "samplers": [
    {
      "magFilter": 9729,
      "minFilter": 9987
    }
  ]
}
