{
  "accessors": [
    {
      "bufferView": 3,
      "componentType": 5126,
      "count": 24,
      "max": [
        0.05000001937150955,
        0.05000000074505806,
        0.05000003054738045
      ],
      "min": [
        -0.05000001937150955,
        -0.05000000074505806,
        -0.05000001937150955
      ],
      "type": "VEC3"
    },
    {
      "bufferView": 3,
      "byteOffset": 288,
      "componentType": 5126,
      "count": 24,
      "max": [
        0.8164966106414795,
        0.6666666865348816,
        0.8164966106414795
      ],
      "min": [
        -0.8164966106414795,
        -0.6666666865348816,
        -0.8164966106414795
      ],
      "type": "VEC3"
    },
    {
      "bufferView": 2,
      "componentType": 5126,
      "count": 24,
      "max": [
        0.9750000238418579,
        0.9750000238418579
      ],
      "min": [
        0.025000009685754776,
        0.02499997615814209
      ],
      "type": "VEC2"
    },
    {
      "bufferView": 1,
      "componentType": 5125,
      "count": 36,
      "type": "SCALAR"
    },
    {
      "bufferView": 3,
      "byteOffset": 576,
      "componentType": 5126,
      "count": 895,
      "max": [
        0.21682199835777283,
        1.617231011390686,
        0.17199330031871796
      ],
      "min": [
        -0.19886399805545807,
        0.8927958011627197,
        -0.18032969534397125
      ],
      "type": "VEC3"
    },
    {
      "bufferView": 3,
      "byteOffset": 11316,
      "componentType": 5126,
      "count": 895,
      "max": [
        0.9970270991325378,
        0.9907398819923401,
        0.9998676180839539
      ],
      "min": [
        -0.9976410269737244,
        -1.0,
        -0.9999080896377563
      ],
      "type": "VEC3"
    },
    {
      "bufferView": 2,
      "byteOffset": 192,
      "componentType": 5126,
      "count": 895,
      "max": [
        0.9929029941558838,
        2.9754600524902344
      ],
      "min": [
        0.004532999824732542,
        2.0030899047851563
      ],
      "type": "VEC2"
    },
    {
      "bufferView": 1,
      "byteOffset": 144,
      "componentType": 5125,
      "count": 3864,
      "type": "SCALAR"
    },
    {
      "bufferView": 3,
      "byteOffset": 22056,
      "componentType": 5126,
      "count": 3609,
      "max": [
        0.6603099703788757,
        1.2652709484100342,
        0.007844900712370872
      ],
      "min": [
        -0.6463829874992371,
        0.8809850215911865,
        -0.13350769877433777
      ],
      "type": "VEC3"
    },
    {
      "bufferView": 3,
      "byteOffset": 65364,
      "componentType": 5126,
      "count": 3609,
      "max": [
        0.9994328022003174,
        0.9787061214447021,
        0.9995129108428955
      ],
      "min": [
        -0.9994354844093323,
        -0.9993419051170349,
        -0.9986515045166016
      ],
      "type": "VEC3"
    },
    {
      "bufferView": 2,
      "byteOffset": 7352,
      "componentType": 5126,
      "count": 3609,
      "max": [
        0.9940119981765747,
        3.687350034713745
      ],
      "min": [
        0.5081409811973572,
        2.402780055999756
      ],
      "type": "VEC2"
    },
    {
      "bufferView": 1,
      "byteOffset": 15600,
      "componentType": 5125,
      "count": 25923,
      "type": "SCALAR"
    },
    {
      "bufferView": 3,
      "byteOffset": 108672,
      "componentType": 5126,
      "count": 2072,
      "max": [
        0.6104260087013245,
        1.6205110549926758,
        0.14363829791545868
      ],
      "min": [
        -0.5928490161895752,
        0.8377670049667358,
        -0.15501469373703003
      ],
      "type": "VEC3"
    },
    {
      "bufferView": 3,
      "byteOffset": 133536,
      "componentType": 5126,
      "count": 2072,
      "max": [
        0.9998425841331482,
        0.989743173122406,
        0.999488115310669
      ],
      "min": [
        -0.9999539256095886,
        -0.9985082149505615,
        -0.999875009059906
      ],
      "type": "VEC3"
    },
    {
      "bufferView": 2,
      "byteOffset": 36224,
      "componentType": 5126,
      "count": 2072,
      "max": [
        0.9963080286979675,
        2.994570016860962
      ],
      "min": [
        0.002360000042244792,
        2.0074000358581543
      ],
      "type": "VEC2"
    },
    {
      "bufferView": 1,
      "byteOffset": 119292,
      "componentType": 5125,
      "count": 11274,
      "type": "SCALAR"
    },
    {
      "bufferView": 3,
      "byteOffset": 158400,
      "componentType": 5126,
      "count": 1361,
      "max": [
        0.22648300230503082,
        1.0561109781265259,
        0.12932829558849335
      ],
      "min": [
        -0.2125539928674698,
        0.20035499334335327,
        -0.13788369297981262
      ],
      "type": "VEC3"
    },
    {
      "bufferView": 3,
      "byteOffset": 174732,
      "componentType": 5126,
      "count": 1361,
      "max": [
        0.9988746047019958,
        0.9695361852645874,
        0.9998968839645386
      ],
      "min": [
        -0.9978107213973999,
        -0.9998295903205872,
        -0.9996290802955627
      ],
      "type": "VEC3"
    },
    {
      "bufferView": 2,
      "byteOffset": 52800,
      "componentType": 5126,
      "count": 1361,
      "max": [
        0.9973000288009644,
        3.073699951171875
      ],
      "min": [
        0.013199999928474426,
        1.0129469633102417
      ],
      "type": "VEC2"
    },
    {
      "bufferView": 1,
      "byteOffset": 164388,
      "componentType": 5125,
      "count": 6954,
      "type": "SCALAR"
    },
    {
      "bufferView": 3,
      "byteOffset": 191064,
      "componentType": 5126,
      "count": 606,
      "max": [
        0.17635899782180786,
        0.2518079876899719,
        0.21090629696846008
      ],
      "min": [
        -0.16355599462985992,
        -0.000774085521697998,
        -0.09859011322259903
      ],
      "type": "VEC3"
    },
    {
      "bufferView": 3,
      "byteOffset": 198336,
      "componentType": 5126,
      "count": 606,
      "max": [
        0.999623715877533,
        0.951094925403595,
        0.9762707948684692
      ],
      "min": [
        -0.9996877908706665,
        -0.9999778866767883,
        -0.9967435002326965
      ],
      "type": "VEC3"
    },
    {
      "bufferView": 2,
      "byteOffset": 63688,
      "componentType": 5126,
      "count": 606,
      "max": [
        0.8809000253677368,
        2.984799861907959
      ],
      "min": [
        0.010099999606609344,
        2.011199951171875
      ],
      "type": "VEC2"
    },
    {
      "bufferView": 1,
      "byteOffset": 192204,
      "componentType": 5125,
      "count": 2616,
      "type": "SCALAR"
    },
    {
      "bufferView": 3,
      "byteOffset": 205608,
      "componentType": 5126,
      "count": 1044,
      "max": [
        0.23315000534057617,
        1.6612310409545898,
        0.13054029643535614
      ],
      "min": [
        -0.20208099484443665,
        0.39091500639915466,
        -0.3737066984176636
      ],
      "type": "VEC3"
    },
    {
      "bufferView": 3,
      "byteOffset": 218136,
      "componentType": 5126,
      "count": 1044,
      "max": [
        0.9985617995262146,
        0.9999474287033081,
        0.9959856271743774
      ],
      "min": [
        -0.9975972175598145,
        -0.9966878890991211,
        -0.9995250105857849
      ],
      "type": "VEC3"
    },
    {
      "bufferView": 2,
      "byteOffset": 68536,
      "componentType": 5126,
      "count": 1044,
      "max": [
        0.5660889744758606,
        2.9730300903320313
      ],
      "min": [
        0.17157100141048431,
        1.6556260585784912
      ],
      "type": "VEC2"
    },
    {
      "bufferView": 1,
      "byteOffset": 202668,
      "componentType": 5125,
      "count": 3432,
      "type": "SCALAR"
    },
    {
      "bufferView": 3,
      "byteOffset": 230664,
      "componentType": 5126,
      "count": 3816,
      "max": [
        0.29502400755882263,
        1.66287100315094,
        0.24670030176639557
      ],
      "min": [
        -0.2748680114746094,
        0.92790287733078,
        -0.3707636892795563
      ],
      "type": "VEC3"
    },
    {
      "bufferView": 3,
      "byteOffset": 276456,
      "componentType": 5126,
      "count": 3816,
      "max": [
        0.9999505877494812,
        1.0,
        0.9999963045120239
      ],
      "min": [
        -0.9998255968093872,
        -0.9995871186256409,
        -0.9998521208763123
      ],
      "type": "VEC3"
    },
    {
      "bufferView": 2,
      "byteOffset": 76888,
      "componentType": 5126,
      "count": 3816,
      "max": [
        0.9972429871559143,
        3.997450113296509
      ],
      "min": [
        0.002449000021442771,
        2.01308012008667
      ],
      "type": "VEC2"
    },
    {
      "bufferView": 1,
      "byteOffset": 216396,
      "componentType": 5125,
      "count": 17700,
      "type": "SCALAR"
    },
    {
      "bufferView": 3,
      "byteOffset": 322248,
      "componentType": 5126,
      "count": 5182,
      "max": [
        0.6620200276374817,
        1.1016310453414917,
        0.00960210245102644
      ],
      "min": [
        -0.6480929851531982,
        0.8791940212249756,
        -0.13529570400714874
      ],
      "type": "VEC3"
    },
    {
      "bufferView": 3,
      "byteOffset": 384432,
      "componentType": 5126,
      "count": 5182,
      "max": [
        0.9995359182357788,
        0.9923346042633057,
        0.9997687935829163
      ],
      "min": [
        -0.9995582103729248,
        -0.9992802739143372,
        -0.9993109703063965
      ],
      "type": "VEC3"
    },
    {
      "bufferView": 2,
      "byteOffset": 107416,
      "componentType": 5126,
      "count": 5182,
      "max": [
        1.9933799505233765,
        2.9870200157165527
      ],
      "min": [
        0.007542000152170658,
        2.01528000831604
      ],
      "type": "VEC2"
    },
    {
      "bufferView": 1,
      "byteOffset": 287196,
      "componentType": 5125,
      "count": 25356,
      "type": "SCALAR"
    },
    {
      "bufferView": 3,
      "byteOffset": 446616,
      "componentType": 5126,
      "count": 1123,
      "max": [
        0.223581001162529,
        1.5959910154342651,
        0.19406330585479736
      ],
      "min": [
        -0.20715999603271484,
        1.0512809753417969,
        -0.19130270183086395
      ],
      "type": "VEC3"
    },
    {
      "bufferView": 3,
      "byteOffset": 460092,
      "componentType": 5126,
      "count": 1123,
      "max": [
        0.9999362826347351,
        0.9997889995574951,
        0.9999505877494812
      ],
      "min": [
        -0.9999428987503052,
        -1.0,
        -0.9999179244041443
      ],
      "type": "VEC3"
    },
    {
      "bufferView": 2,
      "byteOffset": 148872,
      "componentType": 5126,
      "count": 1123,
      "max": [
        0.9916989803314209,
        3.9928600788116455
      ],
      "min": [
        0.007706000003963709,
        3.0976600646972656
      ],
      "type": "VEC2"
    },
    {
      "bufferView": 1,
      "byteOffset": 388620,
      "componentType": 5125,
      "count": 4932,
      "type": "SCALAR"
    },
    {
      "bufferView": 3,
      "byteOffset": 473568,
      "componentType": 5126,
      "count": 1069,
      "max": [
        0.22671610116958618,
        1.6012810468673706,
        0.18717730045318604
      ],
      "min": [
        -0.21667900681495667,
        1.0902810096740723,
        -0.18329669535160065
      ],
      "type": "VEC3"
    },
    {
      "bufferView": 3,
      "byteOffset": 486396,
      "componentType": 5126,
      "count": 1069,
      "max": [
        0.9989385008811951,
        0.9983794093132019,
        0.9999998807907104
      ],
      "min": [
        -0.99965500831604,
        -0.9999861121177673,
        -0.9999902844429016
      ],
      "type": "VEC3"
    },
    {
      "bufferView": 2,
      "byteOffset": 157856,
      "componentType": 5126,
      "count": 1069,
      "max": [
        0.9935920238494873,
        3.4580700397491455
      ],
      "min": [
        0.0063669998198747635,
        1.015383005142212
      ],
      "type": "VEC2"
    },
    {
      "bufferView": 1,
      "byteOffset": 408348,
      "componentType": 5125,
      "count": 4668,
      "type": "SCALAR"
    },
    {
      "bufferView": 3,
      "byteOffset": 499224,
      "componentType": 5126,
      "count": 10,
      "max": [
        0.09050881862640381,
        1.8761359453201294,
        0.1799716055393219
      ],
      "min": [
        -0.08007513731718063,
        1.813420057296753,
        0.11665850132703781
      ],
      "type": "VEC3"
    },
    {
      "bufferView": 3,
      "byteOffset": 499344,
      "componentType": 5126,
      "count": 10,
      "max": [
        0.5313755869865417,
        0.7090306282043457,
        0.7098230719566345
      ],
      "min": [
        -0.5392810106277466,
        0.6023415923118591,
        0.5859209895133972
      ],
      "type": "VEC3"
    },
    {
      "bufferView": 2,
      "byteOffset": 166408,
      "componentType": 5126,
      "count": 10,
      "max": [
        0.9616749882698059,
        -1.2633299827575684
      ],
      "min": [
        0.033688001334667206,
        -1.6866800785064697
      ],
      "type": "VEC2"
    },
    {
      "bufferView": 1,
      "byteOffset": 427020,
      "componentType": 5125,
      "count": 24,
      "type": "SCALAR"
    },
    {
      "bufferView": 3,
      "byteOffset": 499464,
      "componentType": 5126,
      "count": 344,
      "max": [
        0.12511280179023743,
        1.9111770391464233,
        0.2237475961446762
      ],
      "min": [
        -0.1144476979970932,
        1.6884289979934692,
        -0.1358150988817215
      ],
      "type": "VEC3"
    },
    {
      "bufferView": 3,
      "byteOffset": 503592,
      "componentType": 5126,
      "count": 344,
      "max": [
        0.998939573764801,
        0.9992262125015259,
        0.9979180097579956
      ],
      "min": [
        -0.9989144206047058,
        -0.9999300837516785,
        -0.9999933242797852
      ],
      "type": "VEC3"
    },
    {
      "bufferView": 2,
      "byteOffset": 166488,
      "componentType": 5126,
      "count": 344,
      "max": [
        0.9966880083084106,
        -1.003619909286499
      ],
      "min": [
        0.24313899874687195,
        -1.244339942932129
      ],
      "type": "VEC2"
    },
    {
      "bufferView": 1,
      "byteOffset": 427116,
      "componentType": 5125,
      "count": 1644,
      "type": "SCALAR"
    },
    {
      "bufferView": 3,
      "byteOffset": 507720,
      "componentType": 5126,
      "count": 164,
      "max": [
        0.05512244999408722,
        1.7736619710922241,
        0.08979509025812149
      ],
      "min": [
        -0.043090421706438065,
        1.725106954574585,
        0.05064890906214714
      ],
      "type": "VEC3"
    },
    {
      "bufferView": 3,
      "byteOffset": 509688,
      "componentType": 5126,
      "count": 164,
      "max": [
        0.9944602251052856,
        0.9761853218078613,
        0.9947066903114319
      ],
      "min": [
        -0.9977818727493286,
        -0.9977229237556458,
        0.04042899236083031
      ],
      "type": "VEC3"
    },
    {
      "bufferView": 2,
      "byteOffset": 169240,
      "componentType": 5126,
      "count": 164,
      "max": [
        0.9990230202674866,
        -0.0007300376892089844
      ],
      "min": [
        0.0007450000266544521,
        -0.999019980430603
      ],
      "type": "VEC2"
    },
    {
      "bufferView": 1,
      "byteOffset": 433692,
      "componentType": 5125,
      "count": 864,
      "type": "SCALAR"
    },
    {
      "bufferView": 3,
      "byteOffset": 511656,
      "componentType": 5126,
      "count": 860,
      "max": [
        0.0879066064953804,
        1.8654040098190308,
        0.12933680415153503
      ],
      "min": [
        -0.08605480194091797,
        1.5078389644622803,
        -0.11201690137386322
      ],
      "type": "VEC3"
    },
    {
      "bufferView": 3,
      "byteOffset": 521976,
      "componentType": 5126,
      "count": 860,
      "max": [
        0.9976720809936523,
        0.999691903591156,
        0.9960330128669739
      ],
      "min": [
        -0.9969215989112854,
        -0.9996166229248047,
        -0.9979525208473206
      ],
      "type": "VEC3"
    },
    {
      "bufferView": 2,
      "byteOffset": 170552,
      "componentType": 5126,
      "count": 860,
      "max": [
        0.9941409826278687,
        -0.018110036849975586
      ],
      "min": [
        0.004360000137239695,
        -0.994629979133606
      ],
      "type": "VEC2"
    },
    {
      "bufferView": 1,
      "byteOffset": 437148,
      "componentType": 5125,
      "count": 4458,
      "type": "SCALAR"
    },
    {
      "bufferView": 3,
      "byteOffset": 532296,
      "componentType": 5126,
      "count": 393,
      "max": [
        0.08995884656906128,
        1.7712470293045044,
        0.12753120064735413
      ],
      "min": [
        -0.08985927700996399,
        1.6890859603881836,
        -0.11647369712591171
      ],
      "type": "VEC3"
    },
    {
      "bufferView": 3,
      "byteOffset": 537012,
      "componentType": 5126,
      "count": 393,
      "max": [
        0.9996377229690552,
        0.9999939203262329,
        0.9997366070747375
      ],
      "min": [
        -0.9953541159629822,
        -0.9999943375587463,
        -0.9999356269836426
      ],
      "type": "VEC3"
    },
    {
      "bufferView": 2,
      "byteOffset": 177432,
      "componentType": 5126,
      "count": 393,
      "max": [
        0.674170970916748,
        3.9811599254608154
      ],
      "min": [
        0.5624769926071167,
        3.7365899085998535
      ],
      "type": "VEC2"
    },
    {
      "bufferView": 1,
      "byteOffset": 454980,
      "componentType": 5125,
      "count": 1248,
      "type": "SCALAR"
    },
    {
      "bufferView": 3,
      "byteOffset": 541728,
      "componentType": 5126,
      "count": 24,
      "max": [
        0.07696705311536789,
        1.7651469707489014,
        0.12350569665431976
      ],
      "min": [
        -0.07311713695526123,
        1.6936630010604858,
        0.08437862992286682
      ],
      "type": "VEC3"
    },
    {
      "bufferView": 3,
      "byteOffset": 542016,
      "componentType": 5126,
      "count": 24,
      "max": [
        0.6952900290489197,
        0.028161590918898582,
        0.9998729228973389
      ],
      "min": [
        -0.6969188451766968,
        -0.0031464500352740288,
        0.7171498537063599
      ],
      "type": "VEC3"
    },
    {
      "bufferView": 2,
      "byteOffset": 180576,
      "componentType": 5126,
      "count": 24,
      "max": [
        0.9897459745407104,
        4.997910022735596
      ],
      "min": [
        0.01304600015282631,
        4.01269006729126
      ],
      "type": "VEC2"
    },
    {
      "bufferView": 1,
      "byteOffset": 459972,
      "componentType": 5125,
      "count": 132,
      "type": "SCALAR"
    },
    {
      "bufferView": 5,
      "componentType": 5126,
      "count": 127,
      "max": [
        1.0,
        0.0,
        0.0,
        0.0,
        0.0,
        1.0,
        0.0,
        0.0,
        0.0,
        0.0,
        1.0,
        0.0,
        0.64519202709198,
        0.0,
        0.1305686980485916,
        1.0
      ],
      "min": [
        1.0,
        0.0,
        0.0,
        0.0,
        0.0,
        1.0,
        0.0,
        0.0,
        0.0,
        0.0,
        1.0,
        0.0,
        -0.6451810002326965,
        -1.7066090106964111,
        -0.08664832264184952,
        1.0
      ],
      "type": "MAT4"
    },
    {
      "bufferView": 0,
      "componentType": 5123,
      "count": 24,
      "type": "VEC4"
    },
    {
      "bufferView": 4,
      "componentType": 5126,
      "count": 24,
      "max": [
        1.0,
        0.0,
        0.0,
        0.0
      ],
      "min": [
        1.0,
        0.0,
        0.0,
        0.0
      ],
      "type": "VEC4"
    },
    {
      "bufferView": 0,
      "byteOffset": 192,
      "componentType": 5123,
      "count": 895,
      "type": "VEC4"
    },
    {
      "bufferView": 4,
      "byteOffset": 384,
      "componentType": 5126,
      "count": 895,
      "max": [
        1.0,
        0.49863749742507935,
        0.3240860104560852,
        0.0
      ],
      "min": [
        0.341389000415802,
        0.0,
        0.0,
        0.0
      ],
      "type": "VEC4"
    },
    {
      "bufferView": 0,
      "byteOffset": 7352,
      "componentType": 5123,
      "count": 3609,
      "type": "VEC4"
    },
    {
      "bufferView": 4,
      "byteOffset": 14704,
      "componentType": 5126,
      "count": 3609,
      "max": [
        1.0,
        0.49998998641967773,
        0.2620539963245392,
        0.0
      ],
      "min": [
        0.4487679898738861,
        0.0,
        0.0,
        0.0
      ],
      "type": "VEC4"
    },
    {
      "bufferView": 0,
      "byteOffset": 36224,
      "componentType": 5123,
      "count": 2072,
      "type": "VEC4"
    },
    {
      "bufferView": 4,
      "byteOffset": 72448,
      "componentType": 5126,
      "count": 2072,
      "max": [
        1.0,
        0.49920201301574707,
        0.3182060122489929,
        0.0
      ],
      "min": [
        0.3430280089378357,
        0.0,
        0.0,
        0.0
      ],
      "type": "VEC4"
    },
    {
      "bufferView": 0,
      "byteOffset": 52800,
      "componentType": 5123,
      "count": 1361,
      "type": "VEC4"
    },
    {
      "bufferView": 4,
      "byteOffset": 105600,
      "componentType": 5126,
      "count": 1361,
      "max": [
        1.0,
        0.4941059947013855,
        0.28922200202941895,
        0.0
      ],
      "min": [
        0.3832646310329437,
        0.0,
        0.0,
        0.0
      ],
      "type": "VEC4"
    },
    {
      "bufferView": 0,
      "byteOffset": 63688,
      "componentType": 5123,
      "count": 606,
      "type": "VEC4"
    },
    {
      "bufferView": 4,
      "byteOffset": 127376,
      "componentType": 5126,
      "count": 606,
      "max": [
        1.0,
        0.5,
        0.0,
        0.0
      ],
      "min": [
        0.5,
        0.0,
        0.0,
        0.0
      ],
      "type": "VEC4"
    },
    {
      "bufferView": 0,
      "byteOffset": 68536,
      "componentType": 5123,
      "count": 1044,
      "type": "VEC4"
    },
    {
      "bufferView": 4,
      "byteOffset": 137072,
      "componentType": 5126,
      "count": 1044,
      "max": [
        1.0,
        0.4972720146179199,
        0.310373991727829,
        0.0
      ],
      "min": [
        0.35188600420951843,
        0.0,
        0.0,
        0.0
      ],
      "type": "VEC4"
    },
    {
      "bufferView": 0,
      "byteOffset": 76888,
      "componentType": 5123,
      "count": 3816,
      "type": "VEC4"
    },
    {
      "bufferView": 4,
      "byteOffset": 153776,
      "componentType": 5126,
      "count": 3816,
      "max": [
        1.0,
        0.5,
        0.32820600271224976,
        0.0
      ],
      "min": [
        0.3361250162124634,
        0.0,
        0.0,
        0.0
      ],
      "type": "VEC4"
    },
    {
      "bufferView": 0,
      "byteOffset": 107416,
      "componentType": 5123,
      "count": 5182,
      "type": "VEC4"
    },
    {
      "bufferView": 4,
      "byteOffset": 214832,
      "componentType": 5126,
      "count": 5182,
      "max": [
        1.0,
        0.49998998641967773,
        0.2620539963245392,
        0.0
      ],
      "min": [
        0.4487679898738861,
        0.0,
        0.0,
        0.0
      ],
      "type": "VEC4"
    },
    {
      "bufferView": 0,
      "byteOffset": 148872,
      "componentType": 5123,
      "count": 1123,
      "type": "VEC4"
    },
    {
      "bufferView": 4,
      "byteOffset": 297744,
      "componentType": 5126,
      "count": 1123,
      "max": [
        0.910138726234436,
        0.49398699402809143,
        0.29397401213645935,
        0.0
      ],
      "min": [
        0.36065399646759033,
        0.0696360170841217,
        0.0,
        0.0
      ],
      "type": "VEC4"
    },
    {
      "bufferView": 0,
      "byteOffset": 157856,
      "componentType": 5123,
      "count": 1069,
      "type": "VEC4"
    },
    {
      "bufferView": 4,
      "byteOffset": 315712,
      "componentType": 5126,
      "count": 1069,
      "max": [
        0.9102432131767273,
        0.48650801181793213,
        0.32945001125335693,
        0.0
      ],
      "min": [
        0.3356660008430481,
        0.07440712302923203,
        0.0,
        0.0
      ],
      "type": "VEC4"
    },
    {
      "bufferView": 0,
      "byteOffset": 166408,
      "componentType": 5123,
      "count": 10,
      "type": "VEC4"
    },
    {
      "bufferView": 4,
      "byteOffset": 332816,
      "componentType": 5126,
      "count": 10,
      "max": [
        1.0,
        0.0,
        0.0,
        0.0
      ],
      "min": [
        1.0,
        0.0,
        0.0,
        0.0
      ],
      "type": "VEC4"
    },
    {
      "bufferView": 0,
      "byteOffset": 166488,
      "componentType": 5123,
      "count": 344,
      "type": "VEC4"
    },
    {
      "bufferView": 4,
      "byteOffset": 332976,
      "componentType": 5126,
      "count": 344,
      "max": [
        1.0,
        0.05502137541770935,
        0.0,
        0.0
      ],
      "min": [
        0.944978654384613,
        0.0,
        0.0,
        0.0
      ],
      "type": "VEC4"
    },
    {
      "bufferView": 0,
      "byteOffset": 169240,
      "componentType": 5123,
      "count": 164,
      "type": "VEC4"
    },
    {
      "bufferView": 4,
      "byteOffset": 338480,
      "componentType": 5126,
      "count": 164,
      "max": [
        1.0,
        0.0,
        0.0,
        0.0
      ],
      "min": [
        1.0,
        0.0,
        0.0,
        0.0
      ],
      "type": "VEC4"
    },
    {
      "bufferView": 0,
      "byteOffset": 170552,
      "componentType": 5123,
      "count": 860,
      "type": "VEC4"
    },
    {
      "bufferView": 4,
      "byteOffset": 341104,
      "componentType": 5126,
      "count": 860,
      "max": [
        1.0,
        0.4057120084762573,
        0.18126800656318665,
        0.0
      ],
      "min": [
        0.447625994682312,
        0.0,
        0.0,
        0.0
      ],
      "type": "VEC4"
    },
    {
      "bufferView": 0,
      "byteOffset": 177432,
      "componentType": 5123,
      "count": 393,
      "type": "VEC4"
    },
    {
      "bufferView": 4,
      "byteOffset": 354864,
      "componentType": 5126,
      "count": 393,
      "max": [
        1.0,
        0.0,
        0.0,
        0.0
      ],
      "min": [
        1.0,
        0.0,
        0.0,
        0.0
      ],
      "type": "VEC4"
    },
    {
      "bufferView": 0,
      "byteOffset": 180576,
      "componentType": 5123,
      "count": 24,
      "type": "VEC4"
    },
    {
      "bufferView": 4,
      "byteOffset": 361152,
      "componentType": 5126,
      "count": 24,
      "max": [
        1.0,
        0.0,
        0.0,
        0.0
      ],
      "min": [
        1.0,
        0.0,
        0.0,
        0.0
      ],
      "type": "VEC4"
    }
  ],
  "asset": {
    "extras": {
      "author": "mamont nikita (https://sketchfab.com/mamontnikita62)",
      "license": "CC-BY-4.0 (http://creativecommons.org/licenses/by/4.0/)",
      "source": "https://sketchfab.com/3d-models/russian-soldier-5b80f94ef8ab422590185950f5ea029a",
      "title": "Russian Soldier"
    },
    "generator": "Sketchfab-15.83.0",
    "version": "2.0"
  },
  "bufferViews": [
    {
      "buffer": 0,
      "byteLength": 180768,
      "byteStride": 8,
      "name": "shortBufferViews",
      "target": 34962
    },
    {
      "buffer": 0,
      "byteLength": 460500,
      "byteOffset": 180768,
      "name": "floatBufferViews",
      "target": 34963
    },
    {
      "buffer": 0,
      "byteLength": 180768,
      "byteOffset": 641268,
      "byteStride": 8,
      "name": "floatBufferViews",
      "target": 34962
    },
    {
      "buffer": 0,
      "byteLength": 542304,
      "byteOffset": 822036,
      "byteStride": 12,
      "name": "floatBufferViews",
      "target": 34962
    },
    {
      "buffer": 0,
      "byteLength": 361536,
      "byteOffset": 1364340,
      "byteStride": 16,
      "name": "floatBufferViews",
      "target": 34962
    },
    {
      "buffer": 0,
      "byteLength": 8128,
      "byteOffset": 1725876,
      "name": "floatBufferViews"
    }
  ],
  "buffers": [
    {
      "byteLength": 1734004,
      "uri": "scene.bin"
    }
  ],
  "images": [
    {
      "uri": "textures/5_Russian_Soldier.Material73_0_0_0_baseColor.png"
    },
    {
      "uri": "textures/5_Russian_Soldier.Material74_0_0_0_baseColor.png"
    },
    {
      "uri": "textures/5_Russian_Soldier.Material75_0_0_0_baseColor.png"
    },
    {
      "uri": "textures/5_Russian_Soldier.Material76_0_0_0_baseColor.png"
    },
    {
      "uri": "textures/5_Russian_Soldier.Material77_0_0_0_baseColor.png"
    },
    {
      "uri": "textures/5_Russian_Soldier.Material78_0_0_0_baseColor.png"
    },
    {
      "uri": "textures/5_Russian_Soldier.Material79_0_0_0_baseColor.png"
    },
    {
      "uri": "textures/5_Russian_Soldier.Material81_0_0_0_baseColor.png"
    },
    {
      "uri": "textures/5_Russian_Soldier.Material82_0_0_0_baseColor.png"
    },
    {
      "uri": "textures/5_Russian_Soldier.Material83_0_0_0_baseColor.png"
    },
    {
      "uri": "textures/5_Russian_Soldier.Russian_Head.gogglel.gogglel_0_0_0_baseColor.png"
    },
    {
      "uri": "textures/5_Russian_Soldier.Russian_Head.RSA05h.RSA05h_0_0_0_baseColor.png"
    },
    {
      "uri": "textures/5_Russian_Soldier.Russian_Head.eye.eye_0_0_0_baseColor.png"
    },
    {
      "uri": "textures/5_Russian_Soldier.Russian_Head.mask.mask_0_0_0_baseColor.png"
    },
    {
      "uri": "textures/5_Russian_Soldier.Russian_Head.Goggles_5.Material36_1_0_0_baseColor.png"
    }
  ],
  "materials": [
    {
      "doubleSided": true,
      "name": "10_-dummy.dummy_0_0_0_dummy_root_ground",
      "pbrMetallicRoughness": {
        "baseColorFactor": [
          0.8,
          0.8,
          0.8,
          1.0
        ],
        "metallicFactor": 0.0,
        "roughnessFactor": 0.9577051494623774
      }
    },
    {
      "doubleSided": true,
      "name": "5_Russian_Soldier.Material73_0_0_0",
      "pbrMetallicRoughness": {
        "baseColorTexture": {
          "index": 0
        },
        "metallicFactor": 0.0,
        "roughnessFactor": 0.9577051494623774
      }
    },
    {
      "doubleSided": true,
      "name": "5_Russian_Soldier.Material74_0_0_0",
      "pbrMetallicRoughness": {
        "baseColorTexture": {
          "index": 1
        },
        "metallicFactor": 0.0,
        "roughnessFactor": 0.9577051494623774
      }
    },
    {
      "doubleSided": true,
      "name": "5_Russian_Soldier.Material75_0_0_0",
      "pbrMetallicRoughness": {
        "baseColorTexture": {
          "index": 2
        },
        "metallicFactor": 0.0,
        "roughnessFactor": 0.9577051494623774
      }
    },
    {
      "doubleSided": true,
      "name": "5_Russian_Soldier.Material76_0_0_0",
      "pbrMetallicRoughness": {
        "baseColorTexture": {
          "index": 3
        },
        "metallicFactor": 0.0,
        "roughnessFactor": 0.9577051494623774
      }
    },
    {
      "doubleSided": true,
      "name": "5_Russian_Soldier.Material77_0_0_0",
      "pbrMetallicRoughness": {
        "baseColorTexture": {
          "index": 4
        },
        "metallicFactor": 0.0,
        "roughnessFactor": 0.9577051494623774
      }
    },
    {
      "doubleSided": true,
      "name": "5_Russian_Soldier.Material78_0_0_0",
      "pbrMetallicRoughness": {
        "baseColorTexture": {
          "index": 5
        },
        "metallicFactor": 0.0,
        "roughnessFactor": 0.9577051494623774
      }
    },
    {
      "doubleSided": true,
      "name": "5_Russian_Soldier.Material79_0_0_0",
      "pbrMetallicRoughness": {
        "baseColorTexture": {
          "index": 6
        },
        "metallicFactor": 0.0,
        "roughnessFactor": 0.9577051494623774
      }
    },
    {
      "doubleSided": true,
      "name": "5_Russian_Soldier.Material81_0_0_0",
      "pbrMetallicRoughness": {
        "baseColorTexture": {
          "index": 7
        },
        "metallicFactor": 0.0,
        "roughnessFactor": 0.9577051494623774
      }
    },
    {
      "doubleSided": true,
      "name": "5_Russian_Soldier.Material82_0_0_0",
      "pbrMetallicRoughness": {
        "baseColorTexture": {
          "index": 8
        },
        "metallicFactor": 0.0,
        "roughnessFactor": 0.9577051494623774
      }
    },
    {
      "doubleSided": true,
      "name": "5_Russian_Soldier.Material83_0_0_0",
      "pbrMetallicRoughness": {
        "baseColorTexture": {
          "index": 9
        },
        "metallicFactor": 0.0,
        "roughnessFactor": 0.9577051494623774
      }
    },
    {
      "doubleSided": true,
      "name": "5_Russian_Soldier.Russian_Head.gogglel.gogglel_0_0_0",
      "pbrMetallicRoughness": {
        "baseColorTexture": {
          "index": 10
        },
        "metallicFactor": 0.0,
        "roughnessFactor": 0.9577051494623774
      }
    },
    {
      "doubleSided": true,
      "name": "5_Russian_Soldier.Russian_Head.RSA05h.RSA05h_0_0_0",
      "pbrMetallicRoughness": {
        "baseColorTexture": {
          "index": 11
        },
        "metallicFactor": 0.0,
        "roughnessFactor": 0.9577051494623774
      }
    },
    {
      "doubleSided": true,
      "name": "5_Russian_Soldier.Russian_Head.eye.eye_0_0_0",
      "pbrMetallicRoughness": {
        "baseColorTexture": {
          "index": 12
        },
        "metallicFactor": 0.0,
        "roughnessFactor": 0.9577051494623774
      }
    },
    {
      "doubleSided": true,
      "name": "5_Russian_Soldier.Russian_Head.mask.mask_0_0_0",
      "pbrMetallicRoughness": {
        "baseColorTexture": {
          "index": 13
        },
        "metallicFactor": 0.0,
        "roughnessFactor": 0.9577051494623774
      }
    },
    {
      "doubleSided": true,
      "name": "5_Russian_Soldier.Russian_Head.Goggles_5.Material35_1_0_0",
      "pbrMetallicRoughness": {
        "baseColorTexture": {
          "index": 5
        },
        "metallicFactor": 0.0,
        "roughnessFactor": 0.9577051494623774
      }
    },
    {
      "doubleSided": true,
      "name": "5_Russian_Soldier.Russian_Head.Goggles_5.Material36_1_0_0",
      "pbrMetallicRoughness": {
        "baseColorTexture": {
          "index": 14
        },
        "metallicFactor": 0.0,
        "roughnessFactor": 0.9577051494623774
      }
    }
  ],
  "meshes": [
    {
      "name": "10_-dummy.dummy_0_0_0_dummy_root ground_10_-dummy.dummy_0_0_0_dummy_root ground_0",
      "primitives": [
        {
          "attributes": {
            "JOINTS_0": 69,
            "NORMAL": 1,
            "POSITION": 0,
            "TEXCOORD_0": 2,
            "WEIGHTS_0": 70
          },
          "indices": 3,
          "material": 0,
          "mode": 4
        }
      ]
    },
    {
      "name": "5_+Russian Soldier.Material73_0_0_0_5_+Russian Soldier.Material73_0_0_0_0",
      "primitives": [
        {
          "attributes": {
            "JOINTS_0": 71,
            "NORMAL": 5,
            "POSITION": 4,
            "TEXCOORD_0": 6,
            "WEIGHTS_0": 72
          },
          "indices": 7,
          "material": 1,
          "mode": 4
        }
      ]
    },
    {
      "name": "5_+Russian Soldier.Material74_0_0_0_5_+Russian Soldier.Material74_0_0_0_0",
      "primitives": [
        {
          "attributes": {
            "JOINTS_0": 73,
            "NORMAL": 9,
            "POSITION": 8,
            "TEXCOORD_0": 10,
            "WEIGHTS_0": 74
          },
          "indices": 11,
          "material": 2,
          "mode": 4
        }
      ]
    },
    {
      "name": "5_+Russian Soldier.Material75_0_0_0_5_+Russian Soldier.Material75_0_0_0_0",
      "primitives": [
        {
          "attributes": {
            "JOINTS_0": 75,
            "NORMAL": 13,
            "POSITION": 12,
            "TEXCOORD_0": 14,
            "WEIGHTS_0": 76
          },
          "indices": 15,
          "material": 3,
          "mode": 4
        }
      ]
    },
    {
      "name": "5_+Russian Soldier.Material76_0_0_0_5_+Russian Soldier.Material76_0_0_0_0",
      "primitives": [
        {
          "attributes": {
            "JOINTS_0": 77,
            "NORMAL": 17,
            "POSITION": 16,
            "TEXCOORD_0": 18,
            "WEIGHTS_0": 78
          },
          "indices": 19,
          "material": 4,
          "mode": 4
        }
      ]
    },
    {
      "name": "5_+Russian Soldier.Material77_0_0_0_5_+Russian Soldier.Material77_0_0_0_0",
      "primitives": [
        {
          "attributes": {
            "JOINTS_0": 79,
            "NORMAL": 21,
            "POSITION": 20,
            "TEXCOORD_0": 22,
            "WEIGHTS_0": 80
          },
          "indices": 23,
          "material": 5,
          "mode": 4
        }
      ]
    },
    {
      "name": "5_+Russian Soldier.Material78_0_0_0_5_+Russian Soldier.Material78_0_0_0_0",
      "primitives": [
        {
          "attributes": {
            "JOINTS_0": 81,
            "NORMAL": 25,
            "POSITION": 24,
            "TEXCOORD_0": 26,
            "WEIGHTS_0": 82
          },
          "indices": 27,
          "material": 6,
          "mode": 4
        }
      ]
    },
    {
      "name": "5_+Russian Soldier.Material79_0_0_0_5_+Russian Soldier.Material79_0_0_0_0",
      "primitives": [
        {
          "attributes": {
            "JOINTS_0": 83,
            "NORMAL": 29,
            "POSITION": 28,
            "TEXCOORD_0": 30,
            "WEIGHTS_0": 84
          },
          "indices": 31,
          "material": 7,
          "mode": 4
        }
      ]
    },
    {
      "name": "5_+Russian Soldier.Material81_0_0_0_5_+Russian Soldier.Material81_0_0_0_0",
      "primitives": [
        {
          "attributes": {
            "JOINTS_0": 85,
            "NORMAL": 33,
            "POSITION": 32,
            "TEXCOORD_0": 34,
            "WEIGHTS_0": 86
          },
          "indices": 35,
          "material": 8,
          "mode": 4
        }
      ]
    },
    {
      "name": "5_+Russian Soldier.Material82_0_0_0_5_+Russian Soldier.Material82_0_0_0_0",
      "primitives": [
        {
          "attributes": {
            "JOINTS_0": 87,
            "NORMAL": 37,
            "POSITION": 36,
            "TEXCOORD_0": 38,
            "WEIGHTS_0": 88
          },
          "indices": 39,
          "material": 9,
          "mode": 4
        }
      ]
    },
    {
      "name": "5_+Russian Soldier.Material83_0_0_0_5_+Russian Soldier.Material83_0_0_0_0",
      "primitives": [
        {
          "attributes": {
            "JOINTS_0": 89,
            "NORMAL": 41,
            "POSITION": 40,
            "TEXCOORD_0": 42,
            "WEIGHTS_0": 90
          },
          "indices": 43,
          "material": 10,
          "mode": 4
        }
      ]
    },
    {
      "name": "5_+Russian Soldier.+Russian Head.+gogglel.gogglel_0_0_0_5_+Russian Soldier.+Russian Head.+gogglel.gogglel_0_0_0_0",
      "primitives": [
        {
          "attributes": {
            "JOINTS_0": 91,
            "NORMAL": 45,
            "POSITION": 44,
            "TEXCOORD_0": 46,
            "WEIGHTS_0": 92
          },
          "indices": 47,
          "material": 11,
          "mode": 4
        }
      ]
    },
    {
      "name": "5_+Russian Soldier.+Russian Head.+RSA05h.RSA05h_0_0_0_5_+Russian Soldier.+Russian Head.+RSA05h.RSA05h_0_0_0_0",
      "primitives": [
        {
          "attributes": {
            "JOINTS_0": 93,
            "NORMAL": 49,
            "POSITION": 48,
            "TEXCOORD_0": 50,
            "WEIGHTS_0": 94
          },
          "indices": 51,
          "material": 12,
          "mode": 4
        }
      ]
    },
    {
      "name": "5_+Russian Soldier.+Russian Head.+eye.eye_0_0_0_5_+Russian Soldier.+Russian Head.+eye.eye_0_0_0_0",
      "primitives": [
        {
          "attributes": {
            "JOINTS_0": 95,
            "NORMAL": 53,
            "POSITION": 52,
            "TEXCOORD_0": 54,
            "WEIGHTS_0": 96
          },
          "indices": 55,
          "material": 13,
          "mode": 4
        }
      ]
    },
    {
      "name": "5_+Russian Soldier.+Russian Head.+mask.mask_0_0_0_5_+Russian Soldier.+Russian Head.+mask.mask_0_0_0_0",
      "primitives": [
        {
          "attributes": {
            "JOINTS_0": 97,
            "NORMAL": 57,
            "POSITION": 56,
            "TEXCOORD_0": 58,
            "WEIGHTS_0": 98
          },
          "indices": 59,
          "material": 14,
          "mode": 4
        }
      ]
    },
    {
      "name": "5_+Russian Soldier.+Russian Head.+Goggles #5.Material35_1_0_0_5_+Russian Soldier.+Russian Head.+Goggles #5.Material35_1_0_0_0",
      "primitives": [
        {
          "attributes": {
            "JOINTS_0": 99,
            "NORMAL": 61,
            "POSITION": 60,
            "TEXCOORD_0": 62,
            "WEIGHTS_0": 100
          },
          "indices": 63,
          "material": 15,
          "mode": 4
        }
      ]
    },
    {
      "name": "5_+Russian Soldier.+Russian Head.+Goggles #5.Material36_1_0_0_5_+Russian Soldier.+Russian Head.+Goggles #5.Material36_1_0_0_0",
      "primitives": [
        {
          "attributes": {
            "JOINTS_0": 101,
            "NORMAL": 65,
            "POSITION": 64,
            "TEXCOORD_0": 66,
            "WEIGHTS_0": 102
          },
          "indices": 67,
          "material": 16,
          "mode": 4
        }
      ]
    }
  ],
  "nodes": [
    {
      "children": [
        1
      ],
      "matrix": [
        1.0,
        0.0,
        0.0,
        0.0,
        0.0,
        2.220446049250313e-16,
        -1.0,
        0.0,
        0.0,
        1.0,
        2.220446049250313e-16,
        0.0,
        0.0,
        0.0,
        0.0,
        1.0
      ],
      "name": "Sketchfab_model"
    },
    {
      "children": [
        2
      ],
      "matrix": [
        0.009999999776482582,
        0.0,
        0.0,
        0.0,
        0.0,
        0.0,
        0.009999999776482582,
        0.0,
        0.0,
        -0.009999999776482582,
        0.0,
        0.0,
        0.0,
        0.0,
        0.0,
        1.0
      ],
      "name": "Generic_Item.fbx"
    },
    {
      "children": [
        3
      ],
      "name": "RootNode"
    },
    {
      "children": [
        4,
        5,
        6,
        7,
        8,
        9,
        10,
        11,
        12,
        13,
        14,
        15,
        16,
        17,
        18,
        19,
        20,
        21
      ],
      "name": "Object_3"
    },
    {
      "children": [
        22
      ],
      "name": "_rootJoint"
    },
    {
      "mesh": 0,
      "name": "Object_5",
      "skin": 0
    },
    {
      "mesh": 1,
      "name": "Object_6",
      "skin": 0
    },
    {
      "mesh": 2,
      "name": "Object_7",
      "skin": 0
    },
    {
      "mesh": 3,
      "name": "Object_8",
      "skin": 0
    },
    {
      "mesh": 4,
      "name": "Object_9",
      "skin": 0
    },
    {
      "mesh": 5,
      "name": "Object_10",
      "skin": 0
    },
    {
      "mesh": 6,
      "name": "Object_11",
      "skin": 0
    },
    {
      "mesh": 7,
      "name": "Object_12",
      "skin": 0
    },
    {
      "mesh": 8,
      "name": "Object_13",
      "skin": 0
    },
    {
      "mesh": 9,
      "name": "Object_14",
      "skin": 0
    },
    {
      "mesh": 10,
      "name": "Object_15",
      "skin": 0
    },
    {
      "mesh": 11,
      "name": "Object_16",
      "skin": 0
    },
    {
      "mesh": 12,
      "name": "Object_17",
      "skin": 0
    },
    {
      "mesh": 13,
      "name": "Object_18",
      "skin": 0
    },
    {
      "mesh": 14,
      "name": "Object_19",
      "skin": 0
    },
    {
      "mesh": 15,
      "name": "Object_20",
      "skin": 0
    },
    {
      "mesh": 16,
      "name": "Object_21",
      "skin": 0
    },
    {
      "children": [
        23
      ],
      "name": "root ground_00"
    },
    {
      "children": [
        24,
        140,
        144
      ],
      "name": "unused root_03",
      "translation": [
        0.0,
        0.9869999885559082,
        0.0
      ]
    },
    {
      "children": [
        25
      ],
      "name": "spine 1_02",
      "translation": [
        0.0,
        0.08562099933624268,
        -0.07632700353860855
      ]
    },
    {
      "children": [
        26
      ],
      "name": "spine 2_04",
      "translation": [
        0.0,
        0.10193002223968506,
        -0.008499197661876678
      ]
    },
    {
      "children": [
        27
      ],
      "name": "spine 3_05",
      "translation": [
        0.0,
        0.08954000473022461,
        -0.010071896016597748
      ]
    },
    {
      "children": [
        28,
        94,
        117
      ],
      "name": "spine 4_01",
      "translation": [
        0.0,
        0.2283400297164917,
        -0.003358006477355957
      ]
    },
    {
      "children": [
        29,
        32
      ],
      "name": "head neck lower_06",
      "translation": [
        0.0,
        0.0833899974822998,
        0.01446080207824707
      ]
    },
    {
      "children": [
        30,
        31
      ],
      "name": "unused valvebiped.bip01_head1 item_Russian Soldier_07",
      "translation": [
        -4.768460257764673e-07,
        0.07722997665405273,
        0.050360001623630524
      ]
    },
    {
      "name": "unused valvebiped.forward item_Russian Soldier_08",
      "translation": [
        -9.68153926805826e-07,
        0.03723001480102539,
        0.08444869518280029
      ]
    },
    {
      "name": "unused helmet_chin item_Russian Soldier_09",
      "translation": [
        7.149560588004533e-07,
        -0.036409974098205566,
        0.11199060082435608
      ]
    },
    {
      "children": [
        33,
        37,
        41
      ],
      "name": "unused head root_064",
      "translation": [
        0.009999999776482582,
        -0.6358208656311035,
        0.1067953035235405
      ]
    },
    {
      "children": [
        34
      ],
      "name": "unused valvebiped.bip01_l_thigh item_Russian Head item_Russian Soldier_065",
      "translation": [
        0.10626199841499329,
        0.0,
        0.0
      ]
    },
    {
      "children": [
        35
      ],
      "name": "unused valvebiped.bip01_l_calf item_Russian Head item_Russian Soldier_066",
      "translation": [
        0.00254000723361969,
        -0.4868355691432953,
        -0.025259925052523613
      ]
    },
    {
      "children": [
        36
      ],
      "name": "unused valvebiped.bip01_l_foot item_Russian Head item_Russian Soldier_067",
      "translation": [
        0.00235150009393692,
        -0.4496888220310211,
        -0.03878701478242874
      ]
    },
    {
      "name": "unused valvebiped.bip01_l_toe0 item_Russian Head item_Russian Soldier_068",
      "translation": [
        0.008201897144317627,
        -0.10366318374872208,
        0.15650653839111328
      ]
    },
    {
      "children": [
        38
      ],
      "name": "unused valvebiped.bip01_r_thigh item_Russian Head item_Russian Soldier_069",
      "translation": [
        -0.10626200586557388,
        0.0,
        0.0
      ]
    },
    {
      "children": [
        39
      ],
      "name": "unused valvebiped.bip01_r_calf item_Russian Head item_Russian Soldier_070",
      "translation": [
        -0.0025410056114196777,
        -0.48683467507362366,
        -0.025259925052523613
      ]
    },
    {
      "children": [
        40
      ],
      "name": "unused valvebiped.bip01_r_foot item_Russian Head item_Russian Soldier_071",
      "translation": [
        -0.0023504868149757385,
        -0.44968971610069275,
        -0.03878701478242874
      ]
    },
    {
      "name": "unused valvebiped.bip01_r_toe0 item_Russian Head item_Russian Soldier_072",
      "translation": [
        -0.008202902972698212,
        -0.10366258770227432,
        0.15650653839111328
      ]
    },
    {
      "children": [
        42,
        90
      ],
      "name": "unused valvebiped.bip01_spine item_Russian Head item_Russian Soldier_073",
      "translation": [
        0.0,
        0.09137177467346191,
        -0.08144663274288177
      ]
    },
    {
      "children": [
        43
      ],
      "name": "unused valvebiped.bip01_spine1 item_Russian Head item_Russian Soldier_074",
      "translation": [
        0.0,
        0.10875701904296875,
        -0.009069345891475677
      ]
    },
    {
      "children": [
        44
      ],
      "name": "unused valvebiped.bip01_spine2 item_Russian Head item_Russian Soldier_075",
      "translation": [
        0.0,
        0.09555304050445557,
        -0.010747432708740234
      ]
    },
    {
      "children": [
        45,
        66,
        87
      ],
      "name": "unused valvebiped.bip01_spine4 item_Russian Head item_Russian Soldier_076",
      "translation": [
        1.4062970876693726e-07,
        0.24365699291229248,
        -0.0035825371742248535
      ]
    },
    {
      "children": [
        46
      ],
      "name": "unused valvebiped.bip01_l_clavicle item_Russian Head item_Russian Soldier_077",
      "translation": [
        0.052924662828445435,
        0.05086100101470947,
        0.03592967614531517
      ]
    },
    {
      "children": [
        47
      ],
      "name": "unused valvebiped.bip01_l_upperarm item_Russian Head item_Russian Soldier_078",
      "translation": [
        0.15804189443588257,
        -0.04617500305175781,
        0.0009113512933254242
      ]
    },
    {
      "children": [
        48,
        49,
        50
      ],
      "name": "unused valvebiped.bip01_l_forearm item_Russian Head item_Russian Soldier_079",
      "translation": [
        0.2069547176361084,
        -0.24278104305267334,
        -0.01491440087556839
      ]
    },
    {
      "name": "unused valvebiped.bip01_l_wrist item_Russian Head item_Russian Soldier_080",
      "translation": [
        0.20145881175994873,
        -0.2403090000152588,
        0.004106000065803528
      ]
    },
    {
      "name": "unused valvebiped.bip01_l_ulna item_Russian Head item_Russian Soldier_081",
      "translation": [
        0.10072886943817139,
        -0.12014901638031006,
        0.0020529888570308685
      ]
    },
    {
      "children": [
        51,
        54,
        57,
        60,
        63
      ],
      "name": "unused valvebiped.bip01_l_hand item_Russian Head item_Russian Soldier_082",
      "translation": [
        0.18439269065856934,
        -0.2276298999786377,
        0.006377868354320526
      ]
    },
    {
      "children": [
        52
      ],
      "name": "unused valvebiped.bip01_l_finger4 item_Russian Head item_Russian Soldier_083",
      "translation": [
        0.06270432472229004,
        -0.08096808195114136,
        -0.03315971791744232
      ]
    },
    {
      "children": [
        53
      ],
      "name": "unused valvebiped.bip01_l_finger41 item_Russian Head item_Russian Soldier_084",
      "translation": [
        0.013188183307647705,
        -0.03164470195770264,
        -0.006527833640575409
      ]
    },
    {
      "name": "unused valvebiped.bip01_l_finger42 item_Russian Head item_Russian Soldier_085",
      "translation": [
        0.009005188941955566,
        -0.017200946807861328,
        -0.0013582482933998108
      ]
    },
    {
      "children": [
        55
      ],
      "name": "unused valvebiped.bip01_l_finger3 item_Russian Head item_Russian Soldier_086",
      "translation": [
        0.07181978225708008,
        -0.07633316516876221,
        -0.0160156711935997
      ]
    },
    {
      "children": [
        56
      ],
      "name": "unused valvebiped.bip01_l_finger31 item_Russian Head item_Russian Soldier_087",
      "translation": [
        0.01852363348007202,
        -0.036563873291015625,
        -0.0024116337299346924
      ]
    },
    {
      "name": "unused valvebiped.bip01_l_finger32 item_Russian Head item_Russian Soldier_088",
      "translation": [
        0.013508379459381104,
        -0.02888631820678711,
        -0.00012711435556411743
      ]
    },
    {
      "children": [
        58
      ],
      "name": "unused valvebiped.bip01_l_finger2 item_Russian Head item_Russian Soldier_089",
      "translation": [
        0.07404667139053345,
        -0.07352125644683838,
        0.005717523396015167
      ]
    },
    {
      "children": [
        59
      ],
      "name": "unused valvebiped.bip01_l_finger21 item_Russian Head item_Russian Soldier_090",
      "translation": [
        0.0257757306098938,
        -0.038075923919677734,
        0.00019404664635658264
      ]
    },
    {
      "name": "unused valvebiped.bip01_l_finger22 item_Russian Head item_Russian Soldier_091",
      "translation": [
        0.014775395393371582,
        -0.028626680374145508,
        0.001643061637878418
      ]
    },
    {
      "children": [
        61
      ],
      "name": "unused valvebiped.bip01_l_finger1 item_Russian Head item_Russian Soldier_092",
      "translation": [
        0.07717996835708618,
        -0.07118308544158936,
        0.028318101540207863
      ]
    },
    {
      "children": [
        62
      ],
      "name": "unused valvebiped.bip01_l_finger11 item_Russian Head item_Russian Soldier_093",
      "translation": [
        0.02309364080429077,
        -0.03947269916534424,
        0.003999380394816399
      ]
    },
    {
      "name": "unused valvebiped.bip01_l_finger12 item_Russian Head item_Russian Soldier_094",
      "translation": [
        0.012200415134429932,
        -0.02649056911468506,
        0.0026946906000375748
      ]
    },
    {
      "children": [
        64
      ],
      "name": "unused valvebiped.bip01_l_finger0 item_Russian Head item_Russian Soldier_095",
      "translation": [
        0.016585111618041992,
        -0.01642817258834839,
        0.03348839282989502
      ]
    },
    {
      "children": [
        65
      ],
      "name": "unused valvebiped.bip01_l_finger01 item_Russian Head item_Russian Soldier_096",
      "translation": [
        0.001150369644165039,
        -0.028273701667785645,
        0.03640279918909073
      ]
    },
    {
      "name": "unused valvebiped.bip01_l_finger02 item_Russian Head item_Russian Soldier_097",
      "translation": [
        0.0014883875846862793,
        -0.02430790662765503,
        0.01976453885436058
      ]
    },
    {
      "children": [
        67
      ],
      "name": "unused valvebiped.bip01_r_clavicle item_Russian Head item_Russian Soldier_098",
      "translation": [
        -0.05292462930083275,
        0.05086100101470947,
        0.03592967614531517
      ]
    },
    {
      "children": [
        68
      ],
      "name": "unused valvebiped.bip01_r_upperarm item_Russian Head item_Russian Soldier_099",
      "translation": [
        -0.15804220736026764,
        -0.04617500305175781,
        0.0009111389517784119
      ]
    },
    {
      "children": [
        69,
        70,
        71
      ],
      "name": "unused valvebiped.bip01_r_forearm item_Russian Head item_Russian Soldier_0100",
      "translation": [
        -0.20678378641605377,
        -0.24292504787445068,
        -0.014942627400159836
      ]
    },
    {
      "name": "unused valvebiped.bip01_r_wrist item_Russian Head item_Russian Soldier_0101",
      "translation": [
        -0.201629638671875,
        -0.24015498161315918,
        0.0041339099407196045
      ]
    },
    {
      "name": "unused valvebiped.bip01_r_ulna item_Russian Head item_Russian Soldier_0102",
      "translation": [
        -0.10081428289413452,
        -0.12007689476013184,
        0.002066999673843384
      ]
    },
    {
      "children": [
        72,
        75,
        78,
        81,
        84
      ],
      "name": "unused valvebiped.bip01_r_hand item_Russian Head item_Russian Soldier_0103",
      "translation": [
        -0.17237770557403564,
        -0.22067797183990479,
        0.016568798571825027
      ]
    },
    {
      "children": [
        73
      ],
      "name": "unused valvebiped.bip01_r_finger4 item_Russian Head item_Russian Soldier_0104",
      "translation": [
        -0.05955362319946289,
        -0.08092635869979858,
        -0.03859410062432289
      ]
    },
    {
      "children": [
        74
      ],
      "name": "unused valvebiped.bip01_r_finger41 item_Russian Head item_Russian Soldier_0105",
      "translation": [
        -0.013692796230316162,
        -0.031234920024871826,
        -0.007603965699672699
      ]
    },
    {
      "name": "unused valvebiped.bip01_r_finger42 item_Russian Head item_Russian Soldier_0106",
      "translation": [
        -0.007928907871246338,
        -0.01751607656478882,
        -0.0028285905718803406
      ]
    },
    {
      "children": [
        76
      ],
      "name": "unused valvebiped.bip01_r_finger3 item_Russian Head item_Russian Soldier_0107",
      "translation": [
        -0.07021099328994751,
        -0.07621926069259644,
        -0.02238510176539421
      ]
    },
    {
      "children": [
        77
      ],
      "name": "unused valvebiped.bip01_r_finger31 item_Russian Head item_Russian Soldier_0108",
      "translation": [
        -0.021831929683685303,
        -0.0344732403755188,
        -0.0052373409271240234
      ]
    },
    {
      "name": "unused valvebiped.bip01_r_finger32 item_Russian Head item_Russian Soldier_0109",
      "translation": [
        -0.011767685413360596,
        -0.029560863971710205,
        -0.0009571835398674011
      ]
    },
    {
      "children": [
        79
      ],
      "name": "unused valvebiped.bip01_r_finger2 item_Russian Head item_Russian Soldier_0110",
      "translation": [
        -0.07443910837173462,
        -0.07333540916442871,
        -0.0009614080190658569
      ]
    },
    {
      "children": [
        80
      ],
      "name": "unused valvebiped.bip01_r_finger21 item_Russian Head item_Russian Soldier_0111",
      "translation": [
        -0.031009197235107422,
        -0.03386116027832031,
        -0.0029955506324768066
      ]
    },
    {
      "name": "unused valvebiped.bip01_r_finger22 item_Russian Head item_Russian Soldier_0112",
      "translation": [
        -0.014280915260314941,
        -0.02890390157699585,
        -0.0006721727550029755
      ]
    },
    {
      "children": [
        82
      ],
      "name": "unused valvebiped.bip01_r_finger1 item_Russian Head item_Russian Soldier_0113",
      "translation": [
        -0.07965189218521118,
        -0.0709148645401001,
        0.021243130788207054
      ]
    },
    {
      "children": [
        83
      ],
      "name": "unused valvebiped.bip01_r_finger11 item_Russian Head item_Russian Soldier_0114",
      "translation": [
        -0.02937263250350952,
        -0.035331130027770996,
        0.0017746798694133759
      ]
    },
    {
      "name": "unused valvebiped.bip01_r_finger12 item_Russian Head item_Russian Soldier_0115",
      "translation": [
        -0.011191904544830322,
        -0.026931285858154297,
        0.002134060487151146
      ]
    },
    {
      "children": [
        85
      ],
      "name": "unused valvebiped.bip01_r_finger0 item_Russian Head item_Russian Soldier_0116",
      "translation": [
        -0.019663691520690918,
        -0.016273021697998047,
        0.031853049993515015
      ]
    },
    {
      "children": [
        86
      ],
      "name": "unused valvebiped.bip01_r_finger01 item_Russian Head item_Russian Soldier_0117",
      "translation": [
        -0.010069310665130615,
        -0.03099304437637329,
        0.03279251977801323
      ]
    },
    {
      "name": "unused valvebiped.bip01_r_finger02 item_Russian Head item_Russian Soldier_0118",
      "translation": [
        -0.003962397575378418,
        -0.0273362398147583,
        0.014964770525693893
      ]
    },
    {
      "children": [
        88
      ],
      "name": "head neck upper_0119",
      "translation": [
        1.955777406692505e-08,
        0.08897101879119873,
        0.015430726110935211
      ]
    },
    {
      "children": [
        89
      ],
      "name": "head part_0120",
      "translation": [
        1.0244548320770264e-08,
        0.0824209451675415,
        0.053737569600343704
      ]
    },
    {
      "name": "unused goggles item_Russian Head item_Russian Soldier_0125",
      "translation": [
        -0.007210169918835163,
        0.05587804317474365,
        0.03346274048089981
      ]
    },
    {
      "children": [
        91
      ],
      "name": "unused valvebiped.weapon_bone item_Russian Head item_Russian Soldier_0121",
      "translation": [
        4.200264811515808e-07,
        -1.1447442770004272,
        0.06694981455802917
      ]
    },
    {
      "children": [
        92
      ],
      "name": "unused valvebiped.weapon_bone_rhand item_Russian Head item_Russian Soldier_0122",
      "translation": [
        -0.05252629891037941,
        0.10505256801843643,
        -0.06184131279587746
      ]
    },
    {
      "children": [
        93
      ],
      "name": "unused valvebiped.weapon_bone_lhand item_Russian Head item_Russian Soldier_0123",
      "translation": [
        0.13330672681331635,
        0.004770995117723942,
        0.06801655888557434
      ]
    },
    {
      "name": "unused valvebiped.weapon_bone_clip item_Russian Head item_Russian Soldier_0124",
      "translation": [
        0.0,
        0.0,
        -1.0244548320770264e-08
      ]
    },
    {
      "children": [
        95
      ],
      "name": "arm right shoulder 1_010",
      "translation": [
        -0.04959779977798462,
        0.047659993171691895,
        0.03367180377244949
      ]
    },
    {
      "children": [
        96
      ],
      "name": "arm right shoulder 2_011",
      "translation": [
        -0.14810720086097717,
        -0.04325997829437256,
        0.000854000449180603
      ]
    },
    {
      "children": [
        97,
        116
      ],
      "name": "arm rght elbow_012",
      "translation": [
        -0.19301599264144897,
        -0.22831010818481445,
        -0.014059387147426605
      ]
    },
    {
      "children": [
        98,
        99,
        102,
        105,
        108,
        111,
        114,
        115
      ],
      "name": "arm right wrist_013",
      "translation": [
        -0.18667200207710266,
        -0.22729992866516113,
        0.007196590304374695
      ]
    },
    {
      "name": "unused valvebiped.anim_attachment_rh item_Russian Soldier_014",
      "translation": [
        -0.04061901569366455,
        -0.050161004066467285,
        0.04947621375322342
      ]
    },
    {
      "children": [
        100
      ],
      "name": "arm right finger 5a_015",
      "translation": [
        -0.037033021450042725,
        -0.0647120475769043,
        -0.04984060674905777
      ]
    },
    {
      "children": [
        101
      ],
      "name": "arm right finger 5b_016",
      "translation": [
        -0.007591962814331055,
        -0.03330785036087036,
        -0.009507998824119568
      ]
    },
    {
      "name": "arm right finger 5c_017",
      "translation": [
        0.015046954154968262,
        -0.016321122646331787,
        -0.0006269961595535278
      ]
    },
    {
      "children": [
        103
      ],
      "name": "arm right finger 4a_018",
      "translation": [
        -0.05484098196029663,
        -0.07134604454040527,
        -0.02610670030117035
      ]
    },
    {
      "children": [
        104
      ],
      "name": "arm right finger 4b_019",
      "translation": [
        -0.006090998649597168,
        -0.04120898246765137,
        -0.009120501577854156
      ]
    },
    {
      "name": "arm right finger 4c_020",
      "translation": [
        0.026220977306365967,
        -0.02274501323699951,
        0.0002407953143119812
      ]
    },
    {
      "children": [
        106
      ],
      "name": "arm right finger 3a_021",
      "translation": [
        -0.0630980134010315,
        -0.0715630054473877,
        -0.0002636909484863281
      ]
    },
    {
      "children": [
        107
      ],
      "name": "arm right finger 3b_022",
      "translation": [
        -0.0015000104904174805,
        -0.04887813329696655,
        0.0016553997993469238
      ]
    },
    {
      "name": "arm right finger 3c_023",
      "translation": [
        0.0274050235748291,
        -0.024235010147094727,
        -0.0002188161015510559
      ]
    },
    {
      "children": [
        109
      ],
      "name": "arm right finger 2a_024",
      "translation": [
        -0.0670740008354187,
        -0.06885802745819092,
        0.026985596865415573
      ]
    },
    {
      "children": [
        110
      ],
      "name": "arm right finger 2b_025",
      "translation": [
        -0.0007250308990478516,
        -0.04360008239746094,
        0.006570208817720413
      ]
    },
    {
      "name": "arm right finger 2c_026",
      "translation": [
        0.01305299997329712,
        -0.027363896369934082,
        0.003208201378583908
      ]
    },
    {
      "children": [
        112
      ],
      "name": "arm right finger 1a_027",
      "translation": [
        0.0021129846572875977,
        -0.013409972190856934,
        0.025150496512651443
      ]
    },
    {
      "children": [
        113
      ],
      "name": "arm right finger 1b_028",
      "translation": [
        -6.097555160522461e-05,
        -0.04013603925704956,
        0.03631768375635147
      ]
    },
    {
      "name": "arm right finger 1c_029",
      "translation": [
        -0.008714020252227783,
        -0.03961002826690674,
        -9.870994836091995e-05
      ]
    },
    {
      "name": "unused j_ringpalm_ri item_Russian Soldier_030",
      "translation": [
        -0.0158119797706604,
        -0.022530078887939453,
        -0.007856890559196472
      ]
    },
    {
      "name": "unused j_pinkypalm_ri item_Russian Soldier_032",
      "translation": [
        -0.010388016700744629,
        -0.021630048751831055,
        -0.02486969530582428
      ]
    },
    {
      "name": "unused valvebiped.bip01_r_ulna item_Russian Soldier_033",
      "translation": [
        -0.08843600749969482,
        -0.10460996627807617,
        0.0018330886960029602
      ]
    },
    {
      "children": [
        118
      ],
      "name": "arm left shoulder 1_034",
      "translation": [
        0.04959769919514656,
        0.047659993171691895,
        0.033671602606773376
      ]
    },
    {
      "children": [
        119
      ],
      "name": "arm left shoulder 2_035",
      "translation": [
        0.14810830354690552,
        -0.04325997829437256,
        0.0008556991815567017
      ]
    },
    {
      "children": [
        120,
        139
      ],
      "name": "arm left elbow_036",
      "translation": [
        0.19301201403141022,
        -0.22831010818481445,
        -0.014058098196983337
      ]
    },
    {
      "children": [
        121,
        122,
        125,
        128,
        131,
        134,
        137,
        138
      ],
      "name": "arm left wrist_037",
      "translation": [
        0.18666496872901917,
        -0.22729992866516113,
        0.0071974024176597595
      ]
    },
    {
      "name": "unused valvebiped.anim_attachment_lh item_Russian Soldier_038",
      "translation": [
        0.04448199272155762,
        -0.05657714605331421,
        -0.03786930441856384
      ]
    },
    {
      "children": [
        123
      ],
      "name": "arm left finger 5a_039",
      "translation": [
        0.037033021450042725,
        -0.06471103429794312,
        -0.049840204417705536
      ]
    },
    {
      "children": [
        124
      ],
      "name": "arm left finger 5b_040",
      "translation": [
        0.0075910091400146484,
        -0.03330886363983154,
        -0.009507991373538971
      ]
    },
    {
      "name": "arm left finger 5c_041",
      "translation": [
        -0.015047013759613037,
        -0.016321122646331787,
        -0.0006270110607147217
      ]
    },
    {
      "children": [
        126
      ],
      "name": "arm left finger 4a_042",
      "translation": [
        0.054840028285980225,
        -0.07134604454040527,
        -0.026106305420398712
      ]
    },
    {
      "children": [
        127
      ],
      "name": "arm left finger 4b_043",
      "translation": [
        0.00609201192855835,
        -0.041207849979400635,
        -0.009120896458625793
      ]
    },
    {
      "name": "arm left finger 4c_044",
      "translation": [
        -0.026221036911010742,
        -0.022745251655578613,
        0.00024049729108810425
      ]
    },
    {
      "children": [
        129
      ],
      "name": "arm left finger 3a_045",
      "translation": [
        0.06309700012207031,
        -0.0715630054473877,
        -0.0002634003758430481
      ]
    },
    {
      "children": [
        130
      ],
      "name": "arm left finger 3b_046",
      "translation": [
        0.0015010237693786621,
        -0.04887813329696655,
        0.0016554966568946838
      ]
    },
    {
      "name": "arm left finger 3c_047",
      "translation": [
        -0.02740401029586792,
        -0.024235010147094727,
        -0.00021899491548538208
      ]
    },
    {
      "children": [
        132
      ],
      "name": "arm left finger 2a_048",
      "translation": [
        0.0670730471611023,
        -0.06885802745819092,
        0.026985999196767807
      ]
    },
    {
      "children": [
        133
      ],
      "name": "arm left finger 2b_049",
      "translation": [
        0.0007249712944030762,
        -0.04360008239746094,
        0.006570000201463699
      ]
    },
    {
      "name": "arm left finger 2c_050",
      "translation": [
        -0.0130540132522583,
        -0.027363896369934082,
        0.0032081976532936096
      ]
    },
    {
      "children": [
        135
      ],
      "name": "arm left finger 1a_051",
      "translation": [
        -0.0021139979362487793,
        -0.013409972190856934,
        0.025150496512651443
      ]
    },
    {
      "children": [
        136
      ],
      "name": "arm left finger 1b_052",
      "translation": [
        6.103515625e-05,
        -0.04013514518737793,
        0.036316972225904465
      ]
    },
    {
      "name": "arm left finger 1c_053",
      "translation": [
        0.008713960647583008,
        -0.039611876010894775,
        -9.910948574542999e-05
      ]
    },
    {
      "name": "unused j_pinkypalm_l item_Russian Soldier_054",
      "translation": [
        0.010387003421783447,
        -0.021630048751831055,
        -0.02486950159072876
      ]
    },
    {
      "name": "unused j_ringpalm_l item_Russian Soldier_055",
      "translation": [
        0.015812039375305176,
        -0.022530078887939453,
        -0.007856905460357666
      ]
    },
    {
      "name": "unused valvebiped.bip01_l_ulna item_Russian Soldier_056",
      "translation": [
        0.08843499422073364,
        -0.10460996627807617,
        0.001833602786064148
      ]
    },
    {
      "children": [
        141
      ],
      "name": "leg right thigh_057",
      "translation": [
        -0.09958290308713913,
        0.0,
        1.0058280253133489e-07
      ]
    },
    {
      "children": [
        142
      ],
      "name": "leg right knee_058",
      "translation": [
        -0.002383098006248474,
        -0.4562339782714844,
        -0.02367210015654564
      ]
    },
    {
      "children": [
        143
      ],
      "name": "leg right ankle_059",
      "translation": [
        -0.002199999988079071,
        -0.42142102122306824,
        -0.036348700523376465
      ]
    },
    {
      "name": "leg right toe_060",
      "translation": [
        -0.007687002420425415,
        -0.0971466675400734,
        0.14666900038719177
      ]
    },
    {
      "children": [
        145
      ],
      "name": "leg left thigh_061",
      "translation": [
        0.09958290308713913,
        0.0,
        0.0
      ]
    },
    {
      "children": [
        146
      ],
      "name": "leg left knee_062",
      "translation": [
        0.002383098006248474,
        -0.4562309980392456,
        -0.02367199957370758
      ]
    },
    {
      "children": [
        147
      ],
      "name": "leg left ankle_063",
      "translation": [
        0.002199999988079071,
        -0.4214189946651459,
        -0.036348599940538406
      ]
    },
    {
      "name": "leg left toe_031",
      "translation": [
        0.007687002420425415,
        -0.0971471443772316,
        0.1466689258813858
      ]
    }
  ],
  "samplers": [
    {
      "magFilter": 9729,
      "minFilter": 9987,
      "wrapS": 10497,
      "wrapT": 10497
    }
  ],
  "scene": 0,
  "scenes": [
    {
      "name": "Sketchfab_Scene",
      "nodes": [
        0
      ]
    }
  ],
  "skins": [
    {
      "inverseBindMatrices": 68,
      "joints": [
        4,
        22,
        23,
        24,
        25,
        26,
        27,
        28,
        29,
        30,
        31,
        32,
        33,
        34,
        35,
        36,
        37,
        38,
        39,
        40,
        41,
        42,
        43,
        44,
        45,
        46,
        47,
        48,
        49,
        50,
        51,
        52,
        53,
        54,
        55,
        56,
        57,
        58,
        59,
        60,
        61,
        62,
        63,
        64,
        65,
        66,
        67,
        68,
        69,
        70,
        71,
        72,
        73,
        74,
        75,
        76,
        77,
        78,
        79,
        80,
        81,
        82,
        83,
        84,
        85,
        86,
        87,
        88,
        89,
        90,
        91,
        92,
        93,
        94,
        95,
        96,
        97,
        98,
        99,
        100,
        101,
        102,
        103,
        104,
        105,
        106,
        107,
        108,
        109,
        110,
        111,
        112,
        113,
        114,
        115,
        116,
        117,
        118,
        119,
        120,
        121,
        122,
        123,
        124,
        125,
        126,
        127,
        128,
        129,
        130,
        131,
        132,
        133,
        134,
        135,
        136,
        137,
        138,
        139,
        140,
        141,
        142,
        143,
        144,
        145,
        146,
        147
      ],
      "skeleton": 4
    }
  ],
  "textures": [
    {
      "sampler": 0,
      "source": 0
    },
    {
      "sampler": 0,
      "source": 1
    },
    {
      "sampler": 0,
      "source": 2
    },
    {
      "sampler": 0,
      "source": 3
    },
    {
      "sampler": 0,
      "source": 4
    },
    {
      "sampler": 0,
      "source": 5
    },
    {
      "sampler": 0,
      "source": 6
    },
    {
      "sampler": 0,
      "source": 7
    },
    {
      "sampler": 0,
      "source": 8
    },
    {
      "sampler": 0,
      "source": 9
    },
    {
      "sampler": 0,
      "source": 10
    },
    {
      "sampler": 0,
      "source": 11
    },
    {
      "sampler": 0,
      "source": 12
    },
    {
      "sampler": 0,
      "source": 13
    },
    {
      "sampler": 0,
      "source": 14
    }
  ]
}
